<?xml version="1.0" encoding="UTF-8"?>
<svg width="437px" height="403px" viewBox="0 0 437 403" version="1.1" xmlns="http://www.w3.org/2000/svg" xmlns:xlink="http://www.w3.org/1999/xlink">
    <!-- Generator: Sketch 45.2 (43514) - http://www.bohemiancoding.com/sketch -->
    <title>greyhound</title>
    <desc>Created with Sketch.</desc>
    <defs></defs>
    <g id="Page-1" stroke="none" stroke-width="1" fill="none" fill-rule="evenodd">
        <g id="greyhound">
            <path d="M421.107034,380.612407 C422.167503,355.404472 416.649393,312.650601 400.398056,316.180906 L398.093488,316.180906 C404.828152,333.286126 401.619202,377.072921 388.888988,382.912385 L370.479987,382.912385 C368.629906,381.181663 365.420955,380.056924 363.580055,378.31243 L361.275487,378.31243 L361.275487,376.007862 C365.117964,373.841017 367.284809,368.483585 370.479987,366.803362 L381.989056,366.803362 C386.322746,363.759679 384.546116,346.392784 384.289033,339.189861 C379.923208,332.872957 382.797032,321.887237 379.684488,313.880928 C376.062368,304.557068 366.449289,298.915008 361.275487,290.867382 C356.978523,292.304294 359.191276,291.037241 356.675532,293.16736 C343.137342,297.097061 322.910396,313.334626 317.557554,325.385406 C314.720456,331.766581 316.579719,340.943536 312.953008,346.094384 L312.953008,343.794406 C308.752451,339.621393 308.481595,336.407852 308.353054,327.685383 C314.013477,321.180258 315.367755,309.955817 322.157509,304.676428 C331.30692,297.56073 342.962893,293.277538 349.771009,283.962859 C307.705755,264.43371 326.362657,238.849331 310.653031,198.82238 C304.014773,196.439768 292.973964,196.393861 283.03953,196.522402 C275.349985,203.853867 262.505002,204.551665 253.126052,210.326857 C220.75651,230.255404 208.870999,240.304606 156.476504,242.544904 C156.797858,271.664178 156.081698,296.757344 156.476504,329.985361 C156.609637,341.356706 163.876831,348.421906 161.076459,357.598861 C159.107017,364.067261 148.819095,381.438746 144.972027,389.816908 C136.534186,390.583567 128.096344,391.350226 119.658503,392.116885 C117.358526,395.188112 115.053958,398.254749 112.75398,401.321385 C102.213565,405.898386 87.8214912,399.595254 85.1404796,394.421453 C88.9645937,391.662398 89.8506129,389.578187 92.0450025,385.216953 C101.809577,385.414356 102.273245,387.480204 105.849457,380.612407 C119.208607,365.136911 114.884099,297.868311 115.053958,267.858427 C115.820617,255.582699 116.587276,243.311563 117.358526,231.040426 C116.063928,227.230084 110.040833,222.616357 108.154026,219.531358 C101.644309,208.894536 95.1483652,189.884144 92.0450025,178.113402 C92.8116616,169.675561 93.5783207,161.23772 94.3449799,152.799878 C92.1046826,144.678801 85.5261046,133.201868 82.8405022,125.186378 C79.0026159,104.4774 75.1693202,83.7638312 71.3314339,63.0548533 C47.4594133,53.4234112 4.80194876,67.3609986 0,37.7413299 C9.19990948,33.9080343 18.4090005,30.0701479 27.6135007,26.2368523 C32.2134555,25.4701932 36.818001,24.7035341 41.4179557,23.9368749 C44.4845922,20.0989886 47.5558195,16.2656929 50.622456,12.4278065 C54.4603424,11.6611474 58.293638,10.8944883 62.1269336,10.1278292 C64.9135329,8.19511366 65.276204,2.25924393 69.0314565,0.923328928 C79.1541114,-2.67583725 94.8132387,5.39933279 110.454003,5.52787444 C114.59029,12.2349941 116.904039,12.1890863 117.358526,23.9368749 C107.043059,36.6624982 145.320925,102.700771 158.776482,106.777377 C176.46014,119.842718 230.208912,117.501423 260.025984,125.186378 L294.544008,125.186378 C319.655537,131.663959 349.614923,134.647961 368.18001,148.195333 C373.551215,155.099856 378.917828,162.004379 384.289033,168.908902 C395.155393,179.844123 419.491082,200.911181 411.902534,228.735858 C407.031724,246.593966 394.664181,254.182514 393.493533,274.758359 C398.593882,278.32539 400.24197,284.968239 404.998011,288.567405 C410.731887,292.901095 434.870172,306.700959 437.216057,311.57636 L437.216057,364.503384 C433.447032,369.534872 434.654406,383.376053 434.91608,392.116885 C427.01995,396.354169 416.447399,396.950969 402.698034,396.72143 L402.698034,394.421453 L400.398056,394.421453 C401.164715,392.116885 401.931375,389.816908 402.698034,387.51693 C409.662237,384.105986 410.814521,381.498427 421.107034,380.612407" id="Fill-1" fill="#796708" transform="translate(218.608029, 201.451479) scale(-1, 1) translate(-218.608029, -201.451479) "></path>
            <path d="M376.603405,382.968128 C377.5518,360.424229 372.616858,322.188693 358.083002,325.345906 L356.021987,325.345906 C362.044915,340.643405 359.175094,379.802703 347.790241,385.025038 L331.326749,385.025038 C329.672188,383.477223 326.802368,382.471349 325.156019,380.911218 L323.095003,380.911218 L323.095003,378.850202 C326.531398,376.912355 328.469245,372.121109 331.326749,370.618456 L341.619511,370.618456 C345.495205,367.896437 343.906335,352.364919 343.676421,345.923218 C339.771987,340.2739 342.342098,330.449178 339.558495,323.288996 C336.319169,314.950504 327.722024,309.904711 323.095003,302.707578 C319.252153,303.992634 321.231056,302.859486 318.981183,304.764488 C306.873742,308.27889 288.784429,322.800428 283.997289,333.577652 C281.460022,339.284448 283.122794,347.491561 279.879363,352.098054 L279.879363,350.041144 C276.122731,346.309145 275.8805,343.435219 275.765543,335.634562 C280.827759,329.816914 282.038913,319.7787 288.111109,315.05725 C296.293588,308.693556 306.717729,304.863023 312.806347,296.532742 C275.186652,279.067482 291.871847,256.186923 277.822453,220.390118 C271.885742,218.259307 262.011753,218.218251 253.127215,218.333208 C246.25032,224.889866 234.762826,225.513918 226.375067,230.678775 C197.426418,248.501223 186.796997,257.488401 139.939681,259.491938 C140.227074,285.533816 139.586599,307.975074 139.939681,337.691472 C140.058744,347.861066 146.557923,354.179598 144.053502,362.38671 C142.292195,368.171513 133.091526,383.707137 129.651025,391.199874 L107.012698,393.256784 C104.955788,396.003436 102.894772,398.745983 100.837862,401.48853 C91.4113836,405.581822 78.5402995,399.944821 76.1426238,395.3178 C79.5625961,392.850329 80.3549786,390.986382 82.3174597,387.086054 C91.05009,387.262595 91.4647565,389.110119 94.6630259,382.968128 C106.610348,369.12812 102.742864,308.968632 102.894772,282.130266 C103.580409,271.151868 104.266045,260.177575 104.955788,249.203282 C103.798006,245.795627 98.4114468,241.66949 96.7240415,238.91052 C90.902288,229.397825 85.0928514,212.396498 82.3174597,201.869716 C83.0030964,194.323607 83.6887331,186.777498 84.3743698,179.231389 C82.3708326,171.968566 76.487495,161.704544 74.0857137,154.536151 C70.6534246,136.015749 67.2252412,117.491241 63.7929521,98.970839 C42.4437855,90.3572714 4.29446697,102.8219 0,76.3325112 C8.22764036,72.9043277 16.4634919,69.4720386 24.6952379,66.0438551 C28.8090581,65.3582184 32.9269839,64.6725817 37.0408041,63.986945 C39.7833508,60.5546559 42.5300032,57.1264725 45.27255,53.6941834 C48.7048391,53.0085467 52.1330226,52.32291 55.5612061,51.6372733 C58.0533107,49.9088119 58.3776538,44.6002595 61.736042,43.4055273 C70.7889097,40.1867299 84.7931419,47.408496 98.7809516,47.5234531 C102.480105,53.5217478 104.549332,53.4806917 104.955788,63.986945 C95.7304842,75.3676931 129.963052,134.426878 141.996592,138.072659 C157.811397,149.757222 205.879867,147.663361 232.545797,154.536151 L263.415871,154.536151 C285.873552,160.329165 312.666756,162.997811 329.269839,175.113463 C334.073401,181.288299 338.872858,187.463135 343.676421,193.63797 C353.394397,203.417531 375.15823,222.258171 368.371659,247.142266 C364.015607,263.113085 352.955097,269.899657 351.908167,288.300996 C356.469498,291.491054 357.943412,297.431871 362.196823,300.650668 C367.324728,304.526363 388.91202,316.867823 391.009986,321.22798 L391.009986,368.561546 C387.639281,373.061293 388.719057,385.439704 388.953076,393.256784 C381.891429,397.046261 372.436211,397.57999 360.139913,397.37471 L360.139913,395.3178 L358.083002,395.3178 C358.768639,393.256784 359.454276,391.199874 360.139913,389.142964 C366.368121,386.092496 367.398629,383.76051 376.603405,382.968128" id="Fill-1" fill="#086767" transform="translate(195.504993, 222.741368) scale(-1, 1) translate(-195.504993, -222.741368) "></path>
        </g>
    </g>
</svg>